# xmcd
#
# Track frame offsets: 
#        150
#        20060
#        43302
#        57672
#        90352
#        116140
#        141222
#        162515
#        181845
#        204762
#        218777
#        238522
#
# Disc length: 3324 seconds
#
# Revision: 3
# Processed by: cddbd v1.5.2PL0 Copyright (c) Steve Scherf et al.
# Submitted via: ExactAudioCopy v0.99pb5
#
DISCID=ab0cfa0c
DTITLE=Tom Principato - Really Blue
DYEAR=1998
DGENRE=Blues
TTITLE0=Every Minute, Every Hour
TTITLE1=Sweet Little Woman
TTITLE2=One For Danny
TTITLE3=Stranger's Eyes
TTITLE4=Walkin' Blues
TTITLE5=Really Blue
TTITLE6=Standing At The Cross Roads Again
TTITLE7=In Orbit
TTITLE8=Kansas City Blues
TTITLE9=Baby, Please
TTITLE10=In Another Dream
TTITLE11=Here, In My Heart...
EXTD=YEAR: 1998
EXTT0=
EXTT1=
EXTT2=
EXTT3=
EXTT4=
EXTT5=
EXTT6=
EXTT7=
EXTT8=
EXTT9=
EXTT10=
EXTT11=
PLAYORDER=
